# xmcd
#
# Track frame offsets:
#	150
#	9766
#	20018
#	32995
#	46233
#	60531
#	71660
#	85742
#	99271
#	110599
#	127355
#	140754
#	155137
#	165157
#	176903
#	191921
#	204944
#	214368
#	225202
#
# Disc length: 3098 seconds
#
# Revision: 0
# Processed by: cddbd v1.5.1PL0 Copyright (c) Steve Scherf et al.
# Submitted via: audiograbber 1.83.01
#
DISCID=0a0c1813
DTITLE=MoonRidge Melodies - My Yodellin' Days
DYEAR=2000
DGENRE=Country Gospel
TTITLE0=My Yodeling Song for Jesus
TTITLE1=He Giveth More Grace
TTITLE2=Praise the Lord
TTITLE3=Little Country Church
TTITLE4=Free  as the Breeze
TTITLE5=Wings in the Morning
TTITLE6=Take Me Back to Old Montana
TTITLE7=The River
TTITLE8=Streamlined Yodel
TTITLE9=Fall in the Foothills
TTITLE10=Cattle Call
TTITLE11=Cowboy's Prayer
TTITLE12=Why Me, Lord
TTITLE13=Peace in the Valley
TTITLE14=Swiss Moonlight Lullaby
TTITLE15=Log Cabin
TTITLE16=Yo Ho Valley
TTITLE17=My Yodellin' Days
TTITLE18=Allelujah
EXTD=
EXTT0=
EXTT1=
EXTT2=
EXTT3=
EXTT4=
EXTT5=
EXTT6=
EXTT7=
EXTT8=
EXTT9=
EXTT10=
EXTT11=
EXTT12=
EXTT13=
EXTT14=
EXTT15=
EXTT16=
EXTT17=
EXTT18=
PLAYORDER=
